<svg width="286.789" height="286.789" xmlns="http://www.w3.org/2000/svg" xml:space="preserve" version="1.1">

 <g>
  <title>Layer 1</title>
  <g id="svg_1">
   <path fill="#3347a1" id="svg_2" d="m58.971,58.97l-16.971,-16.971c-27.084,27.084 -42,63.093 -42,101.396s14.916,74.311 42,101.395l16.971,-16.971c-22.551,-22.551 -34.971,-52.533 -34.971,-84.424s12.42,-61.875 34.971,-84.425z"/>
   <path fill="#3347a1" id="svg_3" d="m86.219,86.22l-16.971,-16.971c-19.806,19.804 -30.713,46.136 -30.713,74.146s10.907,54.342 30.713,74.145l16.971,-16.971c-15.272,-15.271 -23.684,-35.576 -23.684,-57.175s8.411,-41.903 23.684,-57.174z"/>
   <path fill="#3347a1" id="svg_4" d="m96.528,96.526c-12.52,12.519 -19.414,29.163 -19.414,46.868s6.896,34.35 19.415,46.867l16.969,-16.973c-7.985,-7.984 -12.384,-18.602 -12.384,-29.895c0,-11.294 4.398,-21.912 12.385,-29.898l-16.971,-16.969z"/>
   <path fill="#3347a1" id="svg_5" d="m244.789,41.999l-16.971,16.971c22.551,22.551 34.971,52.533 34.971,84.425s-12.42,61.874 -34.971,84.425l16.971,16.971c27.084,-27.084 42,-63.093 42,-101.395s-14.916,-74.313 -42,-101.397z"/>
   <path fill="#3347a1" id="svg_6" d="m217.541,69.249l-16.971,16.971c15.272,15.271 23.684,35.576 23.684,57.175s-8.411,41.903 -23.684,57.175l16.971,16.971c19.806,-19.804 30.713,-46.136 30.713,-74.145s-10.907,-54.343 -30.713,-74.147z"/>
   <path fill="#3347a1" id="svg_7" d="m190.261,96.526l-16.971,16.971c7.986,7.985 12.385,18.604 12.385,29.898c0,11.293 -4.398,21.91 -12.384,29.895l16.969,16.973c12.52,-12.518 19.415,-29.162 19.415,-46.867s-6.895,-34.351 -19.414,-46.87z"/>
   <path fill="#3347a1" id="svg_8" d="m143.395,121.369c-5.637,0 -11.272,2.15 -15.574,6.451c-8.601,8.602 -8.601,22.545 0,31.148c4.302,4.3 9.937,6.449 15.574,6.449s11.272,-2.149 15.572,-6.449c8.602,-8.604 8.602,-22.547 0,-31.148c-4.299,-4.301 -9.935,-6.451 -15.572,-6.451z"/>
  </g>
  <g id="svg_9"/>
  <g id="svg_10"/>
  <g id="svg_11"/>
  <g id="svg_12"/>
  <g id="svg_13"/>
  <g id="svg_14"/>
  <g id="svg_15"/>
  <g id="svg_16"/>
  <g id="svg_17"/>
  <g id="svg_18"/>
  <g id="svg_19"/>
  <g id="svg_20"/>
  <g id="svg_21"/>
  <g id="svg_22"/>
  <g id="svg_23"/>
 </g>
</svg>