<svg width="443.733" height="443.733" xmlns="http://www.w3.org/2000/svg" xml:space="preserve" version="1.1">

 <g>
  <title>Layer 1</title>
  <g id="svg_1">
   <g id="svg_2">
    <path fill="#212fa1" id="svg_3" d="m187.733,0l-170.666,0c-9.426,0 -17.067,7.641 -17.067,17.067l0,170.667c0,9.426 7.641,17.067 17.067,17.067l170.667,0c9.426,0 17.067,-7.641 17.067,-17.067l0,-170.667c-0.001,-9.426 -7.642,-17.067 -17.068,-17.067z"/>
   </g>
  </g>
  <g id="svg_4">
   <g id="svg_5">
    <path fill="#212fa1" id="svg_6" d="m426.667,0l-170.667,0c-9.426,0 -17.067,7.641 -17.067,17.067l0,170.667c0,9.426 7.641,17.067 17.067,17.067l170.667,0c9.426,0 17.067,-7.641 17.067,-17.067l0,-170.667c-0.001,-9.426 -7.642,-17.067 -17.067,-17.067z"/>
   </g>
  </g>
  <g id="svg_7">
   <g id="svg_8">
    <path fill="#212fa1" id="svg_9" d="m187.733,238.933l-170.666,0c-9.426,0 -17.067,7.641 -17.067,17.067l0,170.667c0,9.426 7.641,17.067 17.067,17.067l170.667,0c9.426,0 17.067,-7.641 17.067,-17.067l0,-170.667c-0.001,-9.426 -7.642,-17.067 -17.068,-17.067z"/>
   </g>
  </g>
  <g id="svg_10">
   <g id="svg_11">
    <path fill="#212fa1" id="svg_12" d="m426.667,238.933l-170.667,0c-9.426,0 -17.067,7.641 -17.067,17.067l0,170.667c0,9.426 7.641,17.067 17.067,17.067l170.667,0c9.426,0 17.067,-7.641 17.067,-17.067l0,-170.667c-0.001,-9.426 -7.642,-17.067 -17.067,-17.067z"/>
   </g>
  </g>
  <g id="svg_13"/>
  <g id="svg_14"/>
  <g id="svg_15"/>
  <g id="svg_16"/>
  <g id="svg_17"/>
  <g id="svg_18"/>
  <g id="svg_19"/>
  <g id="svg_20"/>
  <g id="svg_21"/>
  <g id="svg_22"/>
  <g id="svg_23"/>
  <g id="svg_24"/>
  <g id="svg_25"/>
  <g id="svg_26"/>
  <g id="svg_27"/>
 </g>
</svg>